<?xml version="1.0" encoding="UTF-8" standalone="no"?>
<!-- Created with Inkscape (http://www.inkscape.org/) -->

<svg
   width="48"
   height="48"
   viewBox="0 0 12.7 12.7"
   version="1.1"
   id="svg5"
   xmlns="http://www.w3.org/2000/svg"
   xmlns:svg="http://www.w3.org/2000/svg">
  <defs
     id="defs2" />
  <g
     id="layer1">
    <path
        style="fill:none;stroke:red;stroke-width:0.264583;stroke-opacity:1"
        d="m 8.3425868,11.123449 c -0.074156,-0.148312 -0.1483127,-0.296625 -0.2224691,-0.444938 -0.037078,0 -0.085016,0.02622 -0.1112342,0 -0.074078,-0.07408 -0.064755,-1.0658651 -0.1112346,-1.1123448 -0.026218,-0.026217 -0.085016,0.026218 -0.1112345,0 -0.052436,-0.052436 0.033164,-0.1561414 0,-0.222469 -0.02345,-0.046901 -0.087784,-0.064334 -0.1112346,-0.1112343 -0.03358,-0.06716 0.05142,-0.282284 0,-0.3337036 -0.026218,-0.026218 -0.085016,0.026217 -0.1112345,0 -0.1313013,-0.1313014 0.064104,-0.5731458 0.1112345,-0.667407 0.033164,-0.066327 -0.052436,-0.1700324 0,-0.2224688 0.026218,-0.026218 0.085016,0.026217 0.1112346,0 0.1137981,-0.1137984 -0.02363,-0.6437773 0.1112345,-0.7786416 0.026218,-0.026218 0.085016,0.026218 0.1112346,0 0.055729,-0.055729 0.038311,-0.3720147 0.1112342,-0.4449379 0.026218,-0.026217 0.085017,0.026218 0.1112346,0 0.026218,-0.026217 -0.026218,-0.085016 0,-0.1112345 0.026218,-0.026218 0.085016,0.026218 0.1112345,0 0.026218,-0.026218 -0.026217,-0.085016 0,-0.1112345 0.036899,-0.036899 0.3792588,-0.1896293 0.4449379,-0.2224691 0.1863556,-0.093178 0.097771,-0.4314741 0.2224691,-0.5561725 0.026218,-0.026218 0.085016,0.026218 0.1112345,0 0.026218,-0.026218 -0.026217,-0.085016 0,-0.1112342 0.026218,-0.026218 0.085016,0.026217 0.1112346,0 0.026217,-0.026218 -0.026218,-0.085017 0,-0.1112346 0.026217,-0.026217 0.085016,0.026218 0.1112343,0 0.026218,-0.026217 -0.026218,-0.085016 0,-0.1112345 0.044524,-0.044524 0.1413557,-0.060242 0.222469,-0.2224691 0.1334815,-0.2669627 -0.1334812,-0.7341476 0,-1.0011103 0.032754,-0.065508 0.3337037,-0.6540151 0.3337037,-0.667407 0,-0.037078 -0.078071,0.016581 -0.1112346,0 C 9.7417347,3.5360537 9.714479,3.4853473 9.6774008,3.4482692 9.5984166,3.3692852 9.4746932,3.134327 9.4549317,3.1145658 c -0.052436,-0.052436 -0.1700324,0.052437 -0.2224688,0 -0.072159,-0.072159 0.072159,-0.1503101 0,-0.2224691 -0.026218,-0.026218 -0.085017,0.026218 -0.1112346,0 -0.092695,-0.092695 0.092695,-0.463477 0,-0.5561724 -0.026217,-0.026218 -0.085016,0.026218 -0.1112345,0 -0.052437,-0.052436 0.033164,-0.1561415 0,-0.222469 C 8.9270459,1.9475597 8.7611317,1.8382001 8.6762904,1.6685174 c -0.010205,-0.02041 0.00817,-0.3337035 0,-0.3337035 -0.2719239,0 -0.00526,0.7838975 -0.1112345,0.8898759 -0.026218,0.026218 -0.085016,-0.026218 -0.1112345,0 -0.052437,0.052436 0.052436,0.1700326 0,0.222469 -0.026218,0.026218 -0.085016,-0.026218 -0.1112346,0 -0.055617,0.055617 0.055617,0.2780861 0,0.3337034 -0.026217,0.026218 -0.085016,-0.026218 -0.1112345,0 -0.2301481,0.2301483 0.3516969,-0.009 -0.1112346,0.2224691 -0.033164,0.016581 -0.085016,-0.026218 -0.1112342,0 -0.2301481,0.230148 0.3516966,-0.009 -0.1112346,0.222469 -0.033164,0.016582 -0.085016,-0.026218 -0.1112345,0 -0.00603,0.00603 -0.2164414,0.3276759 -0.2224691,0.3337034 -0.073837,0.073837 -0.1486315,-0.073837 -0.2224688,0 -0.055617,0.055617 -0.055617,0.1668518 -0.1112346,0.2224691 -0.044099,0.044099 -0.5913675,0.2576639 -0.6674069,0.3337033 -0.026218,0.026218 0.026218,0.085016 0,0.1112346 -0.026218,0.026217 -0.078071,-0.016582 -0.1112346,0 -0.093801,0.046901 -0.1286676,0.1755685 -0.2224688,0.2224691 -0.066328,0.033164 -0.1561417,-0.033164 -0.2224691,0 -0.1912771,0.095638 -0.3648953,0.1268304 -0.5561724,0.2224688 -0.1404356,0.070218 -0.5606227,-0.1067843 -0.667407,0 -0.026217,0.026218 0.026218,0.085016 0,0.1112345 -0.00358,0.00358 -0.7259413,0.2049024 -0.7786415,0.2224691 -0.099491,0.033164 -0.1286677,0.1755682 -0.2224688,0.2224688 -0.033164,0.016582 -0.085017,-0.026218 -0.1112346,0 -0.026218,0.026218 0.026218,0.085017 0,0.1112346 -0.052436,0.052436 -0.1700326,-0.052437 -0.222469,0 -0.026218,0.026217 0.026218,0.085016 0,0.1112345 -0.05114,0.051141 -0.3574617,0.1787308 -0.4449379,0.2224691 -0.066327,0.033164 -0.1700327,-0.052436 -0.2224691,0 -0.026218,0.026217 0.026218,0.085016 0,0.1112342 -0.1400584,0.1400586 -0.7779133,0.221741 -0.8898758,0.3337037 -0.026218,0.026217 0.026218,0.085016 0,0.1112345 -0.082909,0.082909 -0.2507942,0.028325 -0.3337035,0.1112343 -0.052437,0.052436 0.1700325,-0.052436 0.222469,0 0.026218,0.026218 -0.026218,0.085016 0,0.1112345 0.037078,0.037078 0.2966253,0.074156 0.3337034,0.1112346 0.00603,0.00603 0.2164415,0.3276759 0.222469,0.3337036 0.052437,0.052436 0.1700326,-0.052437 0.222469,0 0.178941,0.1789409 0.1977269,1.3100717 0.2224689,1.3348137 0.026218,0.026218 0.085016,-0.026218 0.1112345,0 0.052436,0.052436 -0.052436,0.1700326 0,0.2224691 0.026218,0.026217 0.085016,-0.026218 0.1112346,0 0.05051,0.05051 0.4263226,0.7600259 0.4449379,0.7786415 0.055617,0.055617 0.1668518,0.055617 0.222469,0.1112343 0.064471,0.064471 0.1579976,0.3804666 0.2224691,0.4449381 0.052436,0.052437 0.1700324,-0.052436 0.2224688,0 0.026218,0.026218 -0.026217,0.085016 0,0.1112346 0.05142,0.05142 0.2665431,-0.03358 0.3337037,0 0.318988,0.1594941 0.6821223,0.1742091 1.0011103,0.3337031 0.066327,0.03316 0.1561415,-0.03316 0.2224691,0 0.1864677,0.09323 0.3398448,0.114306 0.5561724,0.222469 0.093801,0.0469 0.1286677,0.175569 0.2224688,0.222469 0.033164,0.01658 0.085017,-0.02622 0.1112346,0 0.026218,0.02622 -0.026218,0.08502 0,0.111235 0.026487,0.02649 1.1585572,0.268681 1.2235794,0.333703 0.026218,0.02622 -0.026218,0.08502 0,0.111235 0.1336873,0.133687 0.372755,-0.06538 0.5561724,-0.111235 z"
        id="path3091" />
  </g>
</svg>
