<svg xmlns="http://www.w3.org/2000/svg" id="thermal" width="22" height="22" viewBox="0 0 24 24">
    <rect width="24" height="24" fill="blue" />
    <path fill="#FFFFFF" d="m4.8,8.0031c-2.6416,-0 -4.8,1.5987 -4.8,3.5554 0,1.9566 2.1584,3.5553 4.8,3.5553l0,-1.7754c-1.3176,-0 -2.3969,-0.7994 -2.3969,-1.7754 0,-0.976 1.0792,-1.7754 2.3969,-1.7754 1.3176,-0 2.3969,0.7994 2.3969,1.7754L7.1969,22.2246l2.3969,-0l0,-10.6661c0.0125,-1.9567 -2.1522,-3.5554 -4.7937,-3.5554z"/>
    <path fill="#FFFFFF" d="m4.8,3.56c0,1.9567 2.1584,3.5554 4.8,3.5554L9.6,5.3354c-1.3176,-0 -2.3969,-0.7994 -2.3969,-1.7754 0,-0.976 1.0792,-1.7753 2.3969,-1.7753 1.3176,-0 2.4031,0.7947 2.4031,1.7753L12.0031,24l2.3969,-0l0,-20.4446c0,-1.9566 -2.1584,-3.5554 -4.8,-3.5554 -2.6416,-0 -4.8,1.6034 -4.8,3.56z"/>
    <path fill="#FFFFFF" d="M16.8031,6.2231L16.8031,18.6692l2.3969,-0l0,-12.4462c0,-0.5345 0.4769,-0.8877 1.1984,-0.8877 0.7216,-0 1.1985,0.3532 1.1985,0.8877 0,0.5345 -0.4769,0.8877 -1.1985,0.8877l0,1.7754c1.9201,-0 3.6016,-1.1572 3.6016,-2.6677 0,-1.5105 -1.5624,-2.6677 -3.6016,-2.6677 -2.0392,-0 -3.5953,1.1618 -3.5953,2.6723z"/>

</svg>
