<svg xmlns="http://www.w3.org/2000/svg" id="wave" width="22" height="22" viewBox="0 0 24 24" >
    <rect width="24" height="24" fill="blue" />
    <path
        fill="white"
        d="M17.5851,9.1214C15.7638,9.1013 13.6399,8.2299 11.3546,5.6701 5.5618,-0.8177 1.6013,5.1549 1.4355,5.411 1.1097,5.9183 0.595,5.8973 0.2858,5.3627 -0.0228,4.8266 -0.0118,3.9828 0.3116,3.4722c0.0492,-0.0785 5.0477,-7.7594 11.9586,-0.0205 5.8223,6.5215 10.1999,0.4825 10.3832,0.2231 0.34,-0.4829 0.8538,-0.4229 1.1472,0.1349 0.2937,0.558 0.2593,1.4013 -0.0779,1.8864 -0.0364,0.0529 -2.472,3.4656 -6.1376,3.4253z"
         />
    <path
        fill="white"
        d="m17.5546,16.5604c-1.8209,-0.0197 -3.9448,-0.8921 -6.23,-3.4513 -5.8329,-6.532 -9.8766,-0.3266 -9.917,-0.262 -0.3242,0.5126 -0.8398,0.4939 -1.1505,-0.0403 -0.3115,-0.5341 -0.3008,-1.3825 0.0239,-1.8956 0.0494,-0.0775 5.0479,-7.7594 11.9586,-0.0206 5.8228,6.5206 10.1999,0.4825 10.3834,0.2222 0.3398,-0.4826 0.8535,-0.4218 1.1472,0.1365 0.2937,0.5572 0.2593,1.4006 -0.0781,1.886 -0.0361,0.0529 -2.4719,3.4649 -6.1376,3.4249z"
         />
    <path
        fill="white"
        d="m17.5245,23.9995c-1.8209,-0.0201 -3.9453,-0.8929 -6.2305,-3.4512 -5.8327,-6.5332 -9.8765,-0.3258 -9.9167,-0.2628 -0.3242,0.5132 -0.8397,0.4951 -1.1507,-0.0394 -0.3112,-0.5349 -0.3008,-1.3833 0.0242,-1.8965 0.0494,-0.0781 5.0479,-7.7589 11.9589,-0.0197 5.8223,6.5206 10.1999,0.4829 10.3832,0.2231 0.34,-0.4839 0.8535,-0.4239 1.1472,0.1346 0.2937,0.5584 0.2593,1.4009 -0.0779,1.8876 -0.0366,0.0515 -2.4719,3.4638 -6.1376,3.4245z"
         />
</svg>
