<svg xmlns="http://www.w3.org/2000/svg"
    width="24"
    height="24"
    viewBox="0 0 24 24">
    <rect width="24" height="24" fill="blue" />
    <path
        fill="#FFFFFF"
        d="m15.9969,4.8c0,-2.6416 -1.5987,-4.8 -3.5554,-4.8 -1.9566,0 -3.5553,2.1584 -3.5553,4.8l1.7754,0c0,-1.3176 0.7994,-2.3969 1.7754,-2.3969 0.976,0 1.7754,1.0792 1.7754,2.3969 0,1.3176 -0.7994,2.3969 -1.7754,2.3969L1.7754,7.1969l0,2.3969l10.6661,0c1.9567,0.0125 3.5554,-2.1522 3.5554,-4.7937z"/>
    <path
        fill="#FFFFFF"
        d="m20.44,4.8c-1.9567,0 -3.5554,2.1584 -3.5554,4.8L18.6646,9.6c0,-1.3176 0.7994,-2.3969 1.7754,-2.3969 0.976,0 1.7753,1.0792 1.7753,2.3969 0,1.3176 -0.7947,2.4031 -1.7753,2.4031L0,12.0031l0,2.3969l20.4446,0c1.9566,0 3.5554,-2.1584 3.5554,-4.8 0,-2.6416 -1.6034,-4.8 -3.56,-4.8z"/>
    <path
        fill="#FFFFFF"
        d="M17.7769,16.8031L5.3308,16.8031l0,2.3969l12.4462,0c0.5345,0 0.8877,0.4769 0.8877,1.1984 0,0.7216 -0.3532,1.1985 -0.8877,1.1985 -0.5345,0 -0.8877,-0.4769 -0.8877,-1.1985l-1.7754,0c0,1.9201 1.1572,3.6016 2.6677,3.6016 1.5105,0 2.6677,-1.5624 2.6677,-3.6016 0,-2.0392 -1.1618,-3.5953 -2.6723,-3.5953z"/>
</svg>


